<?xml version="1.0" encoding="utf-8"?>
<!-- Generator: Adobe Illustrator 19.0.0, SVG Export Plug-In . SVG Version: 6.00 Build 0)  -->
<svg version="1.1" id="Lager_1" xmlns="http://www.w3.org/2000/svg" xmlns:xlink="http://www.w3.org/1999/xlink" x="0px" y="0px"
	 viewBox="0 0 153.1 26.8" style="enable-background:new 0 0 153.1 26.8;" xml:space="preserve">
<style type="text/css">
	.st0{opacity:0.8;}
	.st1{fill:#FFFFFF;}
</style>
<g>
	<g id="XMLID_98_">
		<g id="XMLID_102_">
			<g id="XMLID_103_" class="st0">
				<g id="XMLID_104_" class="st0">
					<path id="XMLID_124_" class="st1" d="M91.6,17.3c0.2,1.6,1.1,0.6,2,0c-0.1,0-0.3-0.1-0.4-0.1C92.7,17.3,92.2,17.3,91.6,17.3z"
						/>
					<path id="XMLID_123_" class="st1" d="M93.2,17.2c0.1,0,0.3,0.1,0.4,0.1c0.1-0.1,0.2-0.1,0.3-0.2C93.7,17.2,93.4,17.2,93.2,17.2
						z"/>
					<path id="XMLID_122_" class="st1" d="M91.6,16.5c0,0.3,0,0.6,0.1,0.8c0.5,0,1-0.1,1.5-0.1C92.6,17.1,92.1,16.8,91.6,16.5z"/>
					<path id="XMLID_121_" class="st1" d="M93.9,17.2c0.3,0,0.5,0,0.8-0.1C94.5,17,94.2,17,93.9,17.2z"/>
					<path id="XMLID_120_" class="st1" d="M114.3,4.4c-6.4-0.3-12.8-0.6-19.1-0.9c1.8,0.8,3.5,1.6,5,2.2
						C104.8,7.4,109.6,5.7,114.3,4.4z"/>
					<path id="XMLID_119_" class="st1" d="M85.7,3.2c-2.1-0.1-4.2-0.2-6.4-0.3C81.4,3.3,83.5,3.5,85.7,3.2z"/>
					<path id="XMLID_118_" class="st1" d="M114,4.8c-4.7,1.2-9.5,3-14.1,1.2c-1.5-0.5-3.3-1.4-5-2.2c-5-0.2-10-0.5-15.1-0.7
						c-2.2,0.3-4.3,0.1-6.4-0.3C53.6,2.1,33.7,1.3,12.6,0.5c-1.2,0-7.8,0.4-9.1,1.5L1.3,2.8l0,0.6C3.1,3.5,5,3.8,7.1,3.6
						c1.2,0.1,2.5-0.5,3.8-0.4c5.6,0.2,10.6,1,16.8,0c1.9-0.5,4.9,2,6.8,1.4C42,4.1,48.2,6.7,55,6.2c5.6-0.5,9.4-1.7,15-1.1
						c1.2,0,3.1-0.6,4.4-0.6c8.1,0.6,16.2,1.2,24.3,2.3c1.9,0,3.8,2.4,5.6,1.7c2.5-1.3,5-1.9,7.4-2.6c0.6,0,1.3,1.8,2.5,1.8
						c4.8,0.3,9.2-1.5,13.6-1.6c-0.2-0.2-0.5-0.3-0.8-0.5C122.7,5.3,118.3,5.1,114,4.8z"/>
					<g id="XMLID_115_">
						<path id="XMLID_117_" class="st1" d="M140.6,5.7c-0.7,0.3-1.3,0.6-2,0.8c4.1,1.1,9,1,13.4-0.2C148.2,6.1,144.4,5.9,140.6,5.7z
							"/>
						<path id="XMLID_116_" class="st1" d="M133.7,5.8l0.1,0.1c-2.3-0.1-4.5-0.2-6.8-0.4c0.3,0.1,0.5,0.3,0.8,0.5
							c1.3,0,2.6,0.1,3.9,0.5c0.3,0.1,0.7,0.2,1.1,0.3c0.5-0.2,1-0.4,1.5-0.6c0.1,0.1,0.2,0.1,0.3,0.2c1.1,0.8,2.6,0.7,4.2,0.2
							c-0.4-0.1-0.7-0.2-1.1-0.3C136.3,5.9,135,5.8,133.7,5.8z"/>
					</g>
					<path id="XMLID_114_" class="st1" d="M132.6,22.3c-4.5-1.7-6.9,1.5-11.3,0.4c-3.2-0.7-6.3-0.5-9.4-0.1c7,0.6,13.8,1.1,20.7,0.8
						C132.4,23,132.4,22.7,132.6,22.3z"/>
					<path id="XMLID_113_" class="st1" d="M150.2,13.8c-1.2,1-2.8,1.5-5.1,1.3c-3.8-0.4-7-2.1-10.1-2c-8.8-0.3-18.7,4.9-27.5,0.8
						C99.3,10.4,90,12.9,80.6,13c-1.9,0-4.4,1.2-6.3,1.2c-6.3,0-11.9,0-17.5-0.1c-4.4-0.1-5-3.1-10-2.6c-0.6,0-1.9-1.3-2.5-1.3
						C30,10.5,15,9.5,0.7,7.7C0.5,9,0.4,10.3,0.5,11.5c9.9,0.1,20.1,2.4,29.4,3.2c12.5,1.6,25.1,0.6,37.6,1.8
						c5.9,0.5,12.2,1,18.2,0.8c0-0.2,0-0.5,0-0.8c0.5,0.3,1,0.5,1.6,0.7l0.8-0.1c0.3-0.1,0.6-0.2,0.8-0.1c-0.3,0-0.5,0-0.8,0.1
						c-0.1,0-0.2,0.1-0.3,0.2c4.6,1.1,9.7-2,12.4-1c9.5,3.5,21.3-1.1,29.5,0.5c8.3,1,15.4,0.5,21.4-2.5
						C150.7,14.2,150.4,14,150.2,13.8z"/>
					<path id="XMLID_112_" class="st1" d="M149.4,8.1c-0.3-0.4-0.5-0.7-0.7-0.9c-5.5,3.6-13.4,3.8-20.6,3.6c-0.6,0-1.9-1.2-3.2-1.7
						c-3.1-0.5-4.9,2.6-7.4,2c-22-4.3-43.7-0.5-65.6-0.2c-1.2,0,0-3-1.8-3.7c-5-0.7-9.4-0.2-13.7-2.1c-0.6-0.6-2.5,1.2-4.4,1.7
						C25,8.5,18.9,5.3,12,6.2C8.3,7,4.6,6.1,0.9,6.4C0.8,6.9,0.7,7.3,0.7,7.7C15,9.5,30,10.5,44.4,10.2c0.6,0,1.9,1.3,2.5,1.3
						c3.9-0.4,4.5,2.5,10,2.6c5.7,0.1,11.2,0.1,17.5,0.1c1.9,0,4.4-1.2,6.3-1.2c9.4,0,18.7-2.6,26.9,0.9c8.9,4.1,18.8-1.1,27.5-0.8
						c3.1-0.1,6.3,1.6,10.1,2c2.2,0.2,3.8-0.3,5.1-1.3c-1.5-1.4-2.1-3.5-2.2-5.6C148.4,8.2,148.9,8.2,149.4,8.1z"/>
					<path id="XMLID_111_" class="st1" d="M152.9,12.6c-2-5.7-4.8-7.5-2.3-4.1c-0.5,0-1.1,0.1-1.4,0.1c0.1,2.1,0.8,4.1,2.2,5.6
						C152,13.7,152.5,13.2,152.9,12.6z"/>
					<path id="XMLID_110_" class="st1" d="M148.2,6.7c-0.7,0-1.4-0.1-2.1-0.1c-4.4,1.3-9.3,1.3-13.4,0.2c-1.6,0.5-3.1,0.6-4.2-0.2
						c-0.3-0.2-0.5-0.4-0.8-0.6c-4.3,0.1-8.7,1.9-13.6,1.6c-1.2,0-1.9-1.8-2.5-1.8c-2.5,0.7-5,1.3-7.4,2.6c-1.9,0.6-3.8-1.8-5.6-1.7
						c-8.1-1.1-16.2-1.6-24.3-2.3c-1.2,0-3.1,0.6-4.4,0.6c-5.6-0.6-9.3,0.6-15,1.1c-6.9,0.5-13-2-20.5-1.6c-1.9,0.6-4.9-1.9-6.8-1.4
						c-6.3,1-11.2,0.2-16.8,0c-1.2,0-2.5,0.5-3.8,0.4C5,3.8,3.1,3.5,1.2,3.4L1.1,5.5C1.1,5.8,1,6.1,0.9,6.4C4.6,6.1,8.3,7,12,6.2
						C18.9,5.3,25,8.5,32,6.9c1.9-0.6,3.8-2.3,4.4-1.7c4.3,1.9,8.7,1.4,13.7,2.1c1.9,0.6,0.6,3.7,1.8,3.7
						c21.9-0.3,43.7-4.1,65.6,0.2c2.5,0.5,4.3-2.6,7.4-2c1.3,0.6,2.6,1.7,3.2,1.7c7.2,0.2,15.2-0.1,20.6-3.6
						C148.4,6.9,148.2,6.7,148.2,6.7z"/>
					<path id="XMLID_109_" class="st1" d="M70.9,20.3c2.8,0,5.6,0.1,8.5,0.2c0.2,0,0.6,0,1.2,0C77.4,20.4,74,20,70.9,20.3z"/>
					<path id="XMLID_108_" class="st1" d="M85.4,20.8c3.2,0.1,6.7,0.3,8.6,0.4c-2.1-1-4.3-1.6-6.8-1.6C87.2,19.6,86,20.8,85.4,20.8z
						"/>
					<g id="XMLID_105_">
						<path id="XMLID_107_" class="st1" d="M137.3,23c4.5-0.5,9.1-1.4,13.8-3C146.3,19.9,141.8,21.2,137.3,23z"/>
						<path id="XMLID_106_" class="st1" d="M150.9,14.4c-5.9,3-13,3.5-21.4,2.5c-8.2-1.5-20,3-29.5-0.5c-2.7-1-7.8,2.1-12.4,1
							c-0.9,0.6-1.8,1.5-2,0c-6,0.3-12.4-0.2-18.2-0.8c-12.5-1.3-25.1-0.3-37.6-1.8c-9.3-0.8-19.4-3.1-29.4-3.2
							c0.2,3.5,1.8,6.2,5.1,6.3c12.8,2.4,23.8,2.7,34.8,2.6c4.1-0.7,8.2-1,12.2-0.6c-2.1,0.1-4.2,0.4-6.3,0.7c5-0.1,10-0.2,15.2-0.3
							l-0.5-0.1c1.2,0,2.5,0,3.8,0c3.2-0.3,6.5,0,9.8,0.3c1.1,0.1,2.9,0.1,4.8,0.2c0.6,0,6.5-0.5,8.6,0.4c0.6,0,1.1,0,1.3,0
							c5.7,0.3,11.2,0.8,16.5,1.3c3.1-0.4,6.2-0.5,9.4,0.2c4.4,1.1,11.2,0.5,11.3,0.7c1.6-0.1,3.2-0.2,4.8-0.3c4.5-1.8,9-3.1,13.8-3
							c1.2-0.4,2.4-0.9,3.7-1.4c2.2-0.9,3.1-2.3,3.3-3.8C151.7,14.9,151.3,14.6,150.9,14.4z"/>
					</g>
				</g>
			</g>
		</g>
	</g>
</g>
</svg>
