<?xml version="1.0" encoding="utf-8"?>
<!-- Generator: Adobe Illustrator 19.0.0, SVG Export Plug-In . SVG Version: 6.00 Build 0)  -->
<svg version="1.1" id="Lager_1" xmlns="http://www.w3.org/2000/svg" xmlns:xlink="http://www.w3.org/1999/xlink" x="0px" y="0px"
	 viewBox="0 0 110.9 4.3" style="enable-background:new 0 0 110.9 4.3;" xml:space="preserve">
<style type="text/css">
	.st0{fill-rule:evenodd;clip-rule:evenodd;fill:#00005B;}
</style>
<path class="st0" d="M92.6,0.5c0.2-0.1,0.5-0.2,0.7-0.2C93,0.2,92.6,0.1,92.2,0c-2,1.8-20.8,0.1-26.4,1C60.9,1.7,54,1.2,50.9,0.5
	c-2.8,0-5.6,0-8.4,0c-6.9-1-17.3-0.1-25,1.2C11.4,2.7,6.2,0.5,1,1.9C0.6,2.1,0.3,2.2,0,2.4c0,0.3,0,0.6,0,1
	c8.4,1.7,21.6,0.8,32.9-0.2c11.8,0.1,23.5,0.2,35.3,0.2c5.5-1,13.1,0.3,19.9-1c7.6-1.4,16.8-1.5,22.8-1C109.9,0.1,96.8,0.5,92.6,0.5
	z"/>
</svg>
