<?xml version="1.0" encoding="utf-8"?>
<!-- Generator: Adobe Illustrator 19.0.0, SVG Export Plug-In . SVG Version: 6.00 Build 0)  -->
<svg version="1.1" baseProfile="tiny" id="Lager_1" xmlns="http://www.w3.org/2000/svg" xmlns:xlink="http://www.w3.org/1999/xlink"
	 x="0px" y="0px" viewBox="0 0 149.3 149.3" xml:space="preserve">
<g>
	<g>
		<path fill="#286EBE" d="M149.3,74.7c0,4.9-3.9,9.3-4.8,13.9c-0.9,4.7,1,10.3-0.9,14.7c-1.8,4.4-7.1,7-9.8,11
			c-2.7,4-3,9.9-6.4,13.2c-3.4,3.4-9.3,3.8-13.2,6.4c-3.9,2.6-6.5,7.9-11,9.8c-4.4,1.8-9.9-0.1-14.7,0.8c-4.6,0.9-9,4.8-13.9,4.8
			c-4.9,0-9.3-3.9-13.9-4.8c-4.7-0.9-10.3,1-14.7-0.8c-4.4-1.8-7-7.1-11-9.8c-4-2.7-9.9-3-13.2-6.4c-3.4-3.4-3.8-9.3-6.4-13.2
			c-2.6-3.9-7.9-6.5-9.8-11c-1.8-4.4,0.1-9.9-0.8-14.7C3.9,84,0,79.5,0,74.7c0-4.9,3.9-9.3,4.8-13.9c0.9-4.7-1-10.3,0.9-14.7
			c1.8-4.4,7.1-7,9.8-11c2.7-4,3-9.9,6.4-13.2c3.4-3.4,9.3-3.8,13.2-6.4c3.9-2.6,6.5-7.9,11-9.8c4.4-1.8,9.9,0.1,14.7-0.8
			c4.6-0.9,9-4.8,13.9-4.8c4.9,0,9.3,3.9,13.9,4.8c4.7,0.9,10.3-1,14.7,0.9c4.4,1.8,7,7.1,11,9.8c4,2.7,9.9,3,13.2,6.4
			c3.4,3.4,3.8,9.3,6.4,13.2c2.6,3.9,7.9,6.5,9.8,11c1.8,4.4-0.1,9.9,0.9,14.7C145.4,65.4,149.3,69.8,149.3,74.7z"/>
	</g>
	<g>
		<g>
			<path fill="#FFFFFF" d="M104,40.7c1.5,5.5,5.8,16.7,2.3,33c-3.5,16.4-26.2,23.4-31.7,25.7c-5.5,2.3,15.4,15.5,21,9
				c5.6-6.5,3.8-10.7,12.8-15c9-4.3,15.1-11.1,14.6-17c-0.5-5.9-4.5-6.4-5.1-8.4c-0.6-2,3.6-0.8,1.3-16.3
				C116.7,36.4,105.1,37.4,104,40.7z"/>
			<path fill="#FFFFFF" d="M97.4,48c8.7,14.7,5.2,25.8,2.6,30.4C97.2,83.2,82.6,97.3,72.2,91c-13.1-8-10.4-10.8-18.5-11.4
				c0-1.2,0-10.3,13.2-9.6c12.8,0.7,29.3,3,29.5-21.7C96.5,47.6,97,47.4,97.4,48z"/>
			<path fill="#FFFFFF" d="M99.3,43.2c-0.3-5.3-1.5-18.1-19.1-18.7c-12.3-0.4-21.6,9.8-24.6,16.6c-3.1,6.8,0.1,21.5,3.8,21.6
				c2.2,0,1.8-3.7,2.1-8.4c0.3-4.4,0.7-8.8,2.4-12.5c3.4-7.8,9.7-8.9,18.4-8.9c8.7,0,13.3,8.1,16,11.3C99,44.9,99.4,44.6,99.3,43.2z
				"/>
			<path fill="#FFFFFF" d="M53.5,60.1c-6.8-23.1,6.2-26.5,5.2-28.2c-1.1-1.8-8.7-2.9-12.2-0.1C43,34.7,41.2,38,41.4,46
				c0.1,6.2,7.2,12.1,10.8,15C53.3,61.9,53.8,61,53.5,60.1z"/>
			<path fill="#FFFFFF" d="M73.6,96.4c-0.2-1.8-8.3-5.6-12.3-9.6c-4-4.1-12.4-6.3-12.4-6.3s2.9-8.5,1.2-13.2
				c-1.7-4.7-6.6-11.4-8.1-11.8c-1.5-0.4-10,2.5-7.7,9.4c2.3,6.8-3.1,12.1,2,21.8S73.8,98.2,73.6,96.4z"/>
			<path fill="#FFFFFF" d="M66.1,65.9c1.5,0.9,9.9,1.6,11.5,0.2c1.5-1.5,7.7-11.1,8.3-15.2c0.6-4,0.5-4.9-1.8-7.4
				c-2.4-2.5-8.4-1.4-10.4,1.8c-1.9,3.2-0.5,4.7,0.5,4.9c0.9,0.2-0.1-2.1,1.1-3.5c1.2-1.5,4.8-2.8,6.1-0.8c1.3,2.1,0.9,8.7-4.9,8.8
				c-6.7,0.1-6.1-7.3-4.7-10.1c1.5-2.8,9-8.3,15.6-2.1c5.4,5.1-0.8,15.9-2,17.2c-1.2,1.3-3.5,6.9,0.8,4.9c4.4-2,8.3-6.8,7.7-15.9
				c-0.6-9.1-8.9-14.4-17.9-11.5c-9,2.8-9.8,8.4-11.3,14.9C63,58.6,64.6,65,66.1,65.9z"/>
		</g>
		<path fill="#FFFFFF" d="M61.8,101.9l6.3-1.4c0,0,1-0.4,0.6,1.4c-0.4,1.8-5.3,25.3-5.3,25.3l-5.5-1c0,0,2.3-20.9,2.4-22.6
			C60.6,101.9,61.8,101.9,61.8,101.9z"/>
	</g>
</g>
</svg>
